<?xml version="1.0" standalone="no"?>
<!DOCTYPE svg PUBLIC "-//W3C//DTD SVG 20010904//EN"
 "http://www.w3.org/TR/2001/REC-SVG-20010904/DTD/svg10.dtd">
<svg version="1.0" xmlns="http://www.w3.org/2000/svg"
 width="1280.000000pt" height="933.000000pt" viewBox="0 0 1280.000000 933.000000"
 preserveAspectRatio="xMidYMid meet">
<metadata>
Created by potrace 1.15, written by Peter Selinger 2001-2017
</metadata>
<g transform="translate(0.000000,933.000000) scale(0.100000,-0.100000)"
fill="#000000" stroke="none">
<path d="M1275 8239 c4 -8 14 -21 21 -30 8 -8 23 -42 34 -74 23 -67 26 -164 8
-282 -6 -43 -12 -90 -11 -105 0 -39 23 -87 46 -100 11 -6 97 -16 191 -24 94
-7 210 -22 257 -34 48 -11 174 -36 280 -55 142 -26 197 -40 207 -52 7 -10 32
-19 60 -23 42 -4 47 -8 50 -31 4 -32 44 -44 92 -27 17 5 33 8 37 5 8 -9 -16
-72 -43 -112 -30 -45 -30 -81 0 -126 58 -85 21 -106 -58 -31 -63 60 -85 68
-125 47 -37 -19 -50 -58 -30 -94 19 -35 94 -70 150 -71 52 0 83 -18 77 -46 -3
-17 -14 -19 -109 -22 -116 -3 -154 6 -156 35 -3 36 -33 128 -53 160 -32 53
-93 87 -164 91 -123 8 -169 -39 -186 -191 -23 -198 -4 -409 43 -484 41 -65 80
-83 178 -83 72 1 88 4 111 23 33 27 52 71 68 159 6 37 19 73 29 82 12 10 47
15 131 18 l115 3 3 -27 c2 -16 -6 -39 -19 -57 -19 -26 -21 -34 -11 -56 10 -20
19 -25 51 -25 34 0 39 -3 44 -27 3 -15 0 -35 -7 -45 -10 -18 -20 -19 -121 -13
-62 3 -116 2 -124 -3 -7 -5 -19 -36 -27 -68 -15 -65 -8 -106 25 -161 19 -31
20 -31 118 -35 67 -2 109 1 131 10 23 9 42 10 60 4 23 -8 27 -15 27 -48 0 -32
4 -40 21 -42 21 -3 22 -10 28 -170 17 -421 45 -1753 40 -1892 -7 -198 -10
-220 -33 -220 -10 0 -24 -6 -30 -13 -15 -19 -38 -154 -45 -271 -4 -55 -20
-178 -37 -275 -17 -97 -31 -183 -31 -191 1 -14 -17 -97 -40 -185 -15 -60 -115
-309 -160 -400 -77 -154 -167 -291 -295 -448 -70 -87 -143 -177 -162 -200 -32
-40 -33 -44 -27 -107 3 -36 10 -177 16 -315 14 -341 15 -349 51 -379 16 -14
44 -28 62 -31 18 -3 75 -12 127 -21 152 -25 1540 -38 4230 -37 2401 0 4466 15
4620 34 172 20 185 40 205 301 8 101 19 217 25 258 18 123 16 220 -4 258 -9
19 -67 86 -127 150 -185 197 -413 548 -529 812 -79 180 -179 486 -210 644 -25
123 -25 137 0 143 16 4 20 14 20 50 0 41 -3 45 -34 58 -32 14 -34 16 -41 87
-10 103 -22 410 -17 431 7 26 19 21 31 -13 25 -74 65 -7 66 110 0 88 -15 126
-45 110 -10 -5 -21 -23 -25 -40 -13 -61 -25 -27 -25 74 0 111 3 118 51 109 16
-3 30 1 38 11 20 24 -3 46 -47 46 l-35 0 7 268 c7 257 8 268 28 284 22 16 22
16 4 70 -18 51 -18 69 -3 408 13 305 13 358 1 377 -18 29 -18 30 11 37 29 7
31 22 7 53 -16 20 -29 22 -182 28 -185 8 -203 14 -217 72 -6 28 -15 39 -33 43
-17 4 -31 19 -43 45 -37 82 -42 89 -76 97 l-33 9 7 117 c4 69 12 120 19 124
10 7 176 0 184 -8 2 -1 12 -51 22 -109 26 -153 58 -182 185 -168 l70 8 42 63
c66 98 85 170 90 347 6 177 -3 220 -56 278 -36 38 -40 40 -114 45 -69 4 -80 2
-112 -19 -44 -31 -62 -64 -88 -169 l-22 -85 -75 -1 c-55 -1 -80 2 -92 14 -26
23 -23 29 31 56 54 28 61 39 61 97 0 30 -5 42 -24 54 -35 23 -68 11 -132 -48
-45 -41 -59 -49 -72 -40 -22 13 -27 56 -9 85 8 13 17 51 20 85 5 60 4 63 -21
75 -33 16 -41 67 -18 103 18 28 12 35 -28 35 -53 0 -62 -12 -42 -54 23 -48 18
-79 -14 -86 -21 -5 -25 -12 -25 -42 0 -20 -3 -39 -6 -42 -13 -13 -101 -9 -110
5 -16 25 -10 55 16 79 32 31 42 81 21 112 -13 18 -16 50 -16 161 0 137 0 138
27 163 15 14 41 33 56 42 38 23 114 124 128 172 20 66 -23 227 -65 243 -27 11
-28 -12 -2 -77 55 -136 20 -256 -102 -349 -45 -34 -51 -36 -107 -31 -112 10
-105 3 -105 102 0 71 -5 97 -24 139 -29 62 -60 77 -88 43 -10 -12 -18 -35 -18
-50 0 -15 -8 -34 -19 -44 -15 -14 -17 -24 -10 -59 4 -23 8 -77 9 -120 l0 -78
-27 3 c-27 3 -44 26 -124 176 -10 18 -9 45 3 139 16 110 15 143 -2 143 -8 0
-13 -25 -25 -127 -12 -96 94 -88 -971 -74 -587 8 -1633 11 -2792 9 l-1852 -3
-56 -63 c-36 -39 -62 -61 -71 -58 -8 3 -27 -3 -42 -15 -36 -26 -68 -18 -114
29 -34 35 -36 42 -47 142 -13 109 -24 155 -38 146 -13 -8 -35 -170 -30 -214 4
-23 1 -45 -5 -51 -7 -7 -52 -11 -112 -11 -127 0 -145 -10 -145 -79 0 -42 -3
-50 -22 -55 -43 -11 -78 -7 -85 12 -3 9 -11 23 -17 31 -6 7 -20 41 -31 75
l-20 61 -95 -3 c-58 -2 -99 -7 -106 -15 -6 -7 -16 -52 -23 -102 -7 -49 -14
-92 -17 -94 -3 -3 -107 11 -232 32 -223 36 -321 49 -454 62 l-68 7 1 116 c1
140 -10 193 -58 284 -44 85 -96 129 -160 136 -37 4 -45 2 -38 -9z m2857 -486
c17 -16 38 -23 78 -25 54 -3 55 -4 64 -40 12 -47 -9 -83 -55 -92 -53 -10 -481
-7 -522 5 -31 8 -42 18 -54 47 -20 47 -9 79 37 110 34 23 39 23 232 20 186 -3
198 -4 220 -25z m2400 13 c1154 -11 1592 -17 1608 -26 17 -9 20 -17 15 -39 -5
-25 -3 -29 25 -34 41 -9 57 -44 38 -83 l-13 -29 -350 1 c-615 2 -3339 46
-3361 55 -25 9 -39 61 -24 90 6 11 21 19 36 19 14 0 35 11 47 23 12 13 29 27
37 30 23 8 216 8 1942 -7z m2088 -41 c37 -19 59 -82 42 -120 -19 -41 -57 -58
-142 -63 -69 -4 -80 -2 -99 17 -42 42 -19 113 37 116 86 5 82 3 76 35 -6 28
-5 30 25 30 18 0 45 -7 61 -15z m-2926 -4875 c-5 -5 -43 -13 -84 -19 -41 -6
-86 -14 -99 -17 -22 -7 -23 -5 -16 17 5 13 10 73 12 134 4 108 12 135 39 135
11 0 14 -24 14 -117 0 -65 4 -123 8 -129 4 -7 21 -9 40 -7 l32 5 0 127 c0 112
3 133 22 172 l23 44 9 -168 c4 -95 4 -172 0 -177z m-1226 151 l3 -162 -28 3
-27 3 -1 140 c-1 104 2 146 12 163 30 49 38 21 41 -147z m112 130 c0 -50 -12
-121 -21 -121 -10 0 -12 133 -2 143 14 14 23 6 23 -22z m1250 -103 c0 -159 4
-178 36 -178 18 0 24 -6 24 -21 0 -16 -4 -19 -17 -14 -10 4 -36 9 -57 12 l-39
6 6 149 c5 141 13 178 38 178 5 0 9 -60 9 -132z m-674 76 c9 -63 0 -242 -14
-256 -6 -6 -18 -8 -26 -5 -13 5 -16 22 -16 79 0 73 28 228 42 228 4 0 10 -21
14 -46z m1888 -40 c8 -38 16 -113 18 -167 l4 -98 -60 3 c-47 2 -62 7 -64 20
-2 11 6 18 27 23 l31 7 0 87 c0 115 11 214 22 203 4 -4 15 -40 22 -78z m554
-74 l-3 -135 -29 0 -28 0 1 139 c1 77 4 143 7 147 2 4 15 2 29 -4 l25 -12 -2
-135z m-703 118 c3 -13 4 -86 3 -163 l-3 -140 -67 -5 c-36 -3 -68 -7 -71 -10
-2 -3 -8 -27 -11 -53 -7 -44 -5 -49 14 -54 11 -3 19 -11 17 -17 -5 -16 -46
-20 -62 -6 -9 8 -28 10 -50 6 l-35 -7 1 78 c1 43 5 110 9 148 l7 70 1 -58 2
-58 38 3 37 3 0 100 0 100 33 3 32 3 0 -105 c0 -111 0 -112 48 -100 21 6 22
11 22 108 0 111 8 176 21 176 5 0 11 -10 14 -22z m565 -126 l0 -149 -25 -11
c-33 -15 -49 -52 -41 -94 5 -29 12 -36 57 -51 47 -17 50 -20 47 -50 l-3 -32
-100 0 -100 0 -3 218 c-2 217 3 277 26 285 9 3 12 -30 12 -127 l0 -131 35 0
35 0 0 133 c0 137 5 157 42 157 17 0 18 -12 18 -148z m270 1 l0 -134 -27 3
-28 3 4 130 c2 72 5 133 7 137 2 3 13 4 24 1 19 -5 20 -14 20 -140z m408 19
c2 -79 -1 -122 -8 -122 -5 0 -10 2 -10 5 0 2 -7 52 -16 110 -17 114 -14 138
13 133 16 -3 18 -18 21 -126z m-2168 -12 c0 -126 4 -140 36 -140 l24 0 0 125
c0 77 4 125 10 125 12 0 13 -94 3 -337 l-6 -173 -139 0 -138 0 0 29 c0 28 3
30 58 40 97 19 107 27 107 97 1 89 16 338 22 347 14 24 23 -17 23 -113z m264
83 c3 -21 6 -82 6 -135 l0 -98 -47 -22 c-47 -23 -48 -24 -51 -76 -3 -49 -1
-53 25 -63 15 -6 60 -14 98 -17 66 -7 70 -8 70 -32 l0 -25 -127 -3 -128 -3 1
208 c1 225 10 305 22 194 4 -35 7 -86 7 -112 0 -47 1 -49 28 -49 47 0 52 14
52 147 0 113 1 123 19 123 14 0 20 -10 25 -37z m954 -98 c1 -71 7 -134 12
-139 6 -6 10 -24 10 -42 l0 -32 -37 14 c-21 7 -46 13 -55 14 -23 0 -26 60 -3
60 12 0 15 19 15 111 0 115 10 152 38 147 15 -3 17 -21 20 -133z m817 0 l0
-130 28 -3 c30 -4 35 -23 12 -42 -9 -8 -15 -30 -15 -60 0 -43 3 -49 30 -60 26
-11 30 -18 30 -51 l0 -39 -90 0 -90 0 0 120 c0 98 3 122 15 126 12 5 15 30 15
141 l0 134 33 -3 32 -3 0 -130z m393 45 c3 -108 -9 -195 -27 -195 -29 0 -34
31 -26 159 7 122 8 127 29 124 19 -3 21 -10 24 -88z m662 -21 c0 -54 -3 -99
-6 -99 -20 0 -33 42 -34 107 0 82 6 104 26 96 11 -4 14 -28 14 -104z m-4060
96 c0 -12 -24 -55 -32 -55 -13 0 -9 48 5 53 16 7 27 8 27 2z m266 -3 c13 -8
24 -262 12 -262 -5 0 -14 0 -22 0 -10 0 -14 30 -19 127 -6 146 -4 157 29 135z
m2598 -14 c10 -39 7 -288 -4 -288 -5 0 -10 3 -10 6 0 3 -9 58 -21 122 -22 128
-19 182 10 182 11 0 21 -10 25 -22z m-3565 0 c0 -7 -4 -22 -9 -33 -7 -17 -9
-15 -9 13 -1 17 4 32 9 32 6 0 10 -6 9 -12z m575 -30 c17 -64 -4 -228 -29
-228 -3 0 -5 56 -5 125 0 100 3 125 14 125 7 0 16 -10 20 -22z m-173 -95 c1
-60 4 -121 8 -137 9 -43 29 -44 37 -1 5 29 10 36 28 33 20 -3 21 -9 24 -125 2
-103 0 -123 -12 -123 -8 0 -18 4 -21 10 -4 6 -13 5 -26 -3 -17 -10 -22 -9 -35
8 -12 16 -16 17 -23 6 -6 -8 -19 -12 -35 -9 -15 3 -29 1 -32 -3 -3 -5 -14 -9
-25 -9 -14 0 -19 7 -19 29 0 45 17 81 38 81 27 0 42 20 42 56 0 22 -7 38 -21
48 -27 18 -16 36 22 36 l29 0 0 105 c0 63 4 105 10 105 6 0 10 -43 11 -107z
m707 -86 c2 -179 2 -186 -18 -197 -12 -6 -33 -10 -48 -8 -24 3 -27 8 -30 42
-4 50 18 126 41 140 14 9 17 26 17 107 0 52 3 99 7 103 23 22 28 -12 31 -187z
m1072 87 c0 -71 -4 -104 -11 -102 -6 2 -10 7 -10 11 1 4 1 50 1 102 0 57 4 95
10 95 6 0 10 -42 10 -106z m-141 -31 c1 -43 -3 -73 -9 -73 -6 0 -10 37 -9 93
0 60 3 85 9 72 5 -11 9 -53 9 -92z m2336 -148 c21 -88 38 -167 39 -175 1 -13
-14 -14 -89 -11 -49 2 -91 4 -92 5 -1 1 -5 56 -9 124 l-7 122 52 0 51 0 0 63
c1 86 11 62 55 -128z m788 133 c-8 -72 -13 -73 -13 -5 0 32 4 57 10 57 5 0 7
-22 3 -52z m329 35 c7 -30 -3 -123 -13 -117 -12 7 -12 134 0 134 5 0 11 -8 13
-17z m-473 -47 c6 -22 8 -42 6 -44 -5 -5 -22 35 -31 76 -10 43 12 13 25 -32z
m-122 -43 c-3 -10 -5 -4 -5 12 0 17 2 24 5 18 2 -7 2 -21 0 -30z m-2597 -28
c0 -13 -4 -14 -22 -4 -34 17 -34 19 -5 19 18 0 27 -5 27 -15z m-2106 -143 c9
-14 -14 -84 -27 -79 -14 4 -30 54 -23 72 6 16 41 20 50 7z m2096 -2 c0 -5 -7
-10 -16 -10 -8 0 -12 5 -9 10 3 6 10 10 16 10 5 0 9 -4 9 -10z m634 -31 c12
-62 17 -60 -116 -57 l-123 3 0 25 c0 23 4 25 94 37 52 7 96 15 99 18 16 16 40
2 46 -26z m-2032 -11 c-9 -9 -12 -7 -12 12 0 19 3 21 12 12 9 -9 9 -15 0 -24z
m1308 3 c0 -36 -3 -38 -68 -47 l-52 -7 0 42 0 41 60 0 c60 0 60 0 60 -29z
m-1486 10 c3 -5 -3 -20 -14 -32 -20 -24 -20 -24 -35 -5 -15 19 -15 19 -29 1
-16 -22 -46 -14 -46 13 0 10 3 22 7 25 10 10 111 8 117 -2z m106 0 c0 -20 -13
-41 -21 -35 -15 9 -10 44 6 44 8 0 15 -4 15 -9z m1770 -1 c12 -6 16 -17 13
-30 -4 -17 -14 -20 -54 -20 -48 0 -49 1 -49 30 0 28 3 30 36 30 19 0 44 -4 54
-10z m-1226 -16 c10 -27 -3 -34 -68 -34 -55 0 -64 3 -69 19 -7 28 -1 31 69 31
47 0 63 -4 68 -16z m2546 -10 c0 -21 -4 -25 -22 -22 -15 2 -24 11 -26 26 -3
18 1 22 22 22 21 0 26 -5 26 -26z m160 0 c6 -14 10 -27 10 -30 0 -2 -23 -4
-50 -4 -36 0 -52 4 -56 15 -12 30 4 45 46 45 34 0 42 -4 50 -26z m655 -185
c15 -45 20 -50 43 -47 21 2 29 11 38 43 l11 40 93 3 c51 1 97 -1 102 -6 6 -6
88 -255 88 -269 0 -2 -97 -3 -215 -3 l-216 0 6 133 c4 72 8 138 11 145 7 25
23 10 39 -39z m-135 -4 c0 -55 -13 -58 -28 -6 -16 50 -15 51 8 51 17 0 20 -7
20 -45z m-5370 -6 c0 -12 -12 -21 -37 -28 -43 -12 -54 -5 -42 27 17 45 79 46
79 1z m1440 26 c9 -11 16 -12 31 -2 17 10 22 9 33 -5 16 -22 31 -241 17 -265
-8 -16 -34 -17 -278 -14 -147 1 -270 4 -272 6 -6 6 29 227 41 258 12 31 35 35
54 10 12 -17 13 -17 19 0 4 9 12 17 17 17 6 0 17 -8 24 -17 13 -17 15 -17 29
1 14 19 15 19 35 1 18 -16 23 -17 30 -5 8 13 13 13 37 -2 21 -12 29 -26 31
-52 5 -62 38 -36 58 47 6 28 27 36 40 16 5 -8 10 -6 16 5 11 20 22 20 38 1z
m714 -62 c3 -42 6 -112 6 -156 l0 -80 -247 6 c-135 4 -248 8 -249 10 -2 2 3
30 10 62 8 33 19 86 26 118 12 62 24 72 35 30 l7 -28 24 29 c21 24 33 29 77
30 50 1 52 0 55 -26 2 -16 8 -28 13 -28 5 0 12 -1 16 -2 4 -2 10 11 13 27 4
24 11 31 33 33 19 2 31 11 37 28 9 22 15 24 73 24 l64 0 7 -77z m361 55 c2
-13 6 -36 8 -53 l3 -30 11 25 c6 14 14 37 17 52 l6 28 128 -7 c70 -3 128 -6
129 -7 1 -1 3 -66 4 -146 l3 -145 -303 -3 -303 -2 7 147 c4 82 9 151 12 156 2
4 65 7 138 7 131 0 135 -1 140 -22z m453 9 c6 -7 12 -37 14 -67 2 -43 7 -56
21 -58 13 -3 17 4 17 31 0 26 5 36 19 40 23 6 31 -10 31 -58 0 -19 4 -37 10
-40 10 -6 18 18 22 70 l3 30 78 3 c72 3 79 5 89 27 10 22 18 25 63 25 l53 0 6
-62 c3 -35 7 -99 8 -143 l3 -80 -266 -3 -266 -2 -5 142 c-3 79 -4 146 -1 151
7 12 90 8 101 -6z m740 0 c6 -7 12 -30 14 -52 4 -56 30 -54 44 5 l11 45 96 3
96 3 15 -35 c8 -19 17 -84 21 -145 l8 -110 -278 -3 c-152 -2 -281 0 -287 3 -6
4 -6 53 1 140 6 73 11 136 11 141 0 4 46 9 103 11 56 1 109 4 118 5 9 1 21 -4
27 -11z m1198 -27 c17 -41 48 -60 68 -41 6 7 16 26 22 44 l11 32 108 0 109 0
38 -129 c21 -71 36 -131 35 -133 -6 -6 -529 -23 -538 -17 -10 6 -12 267 -2
277 3 4 35 7 70 7 l63 0 16 -40z m-4776 21 c0 -6 -4 -13 -10 -16 -5 -3 -10 1
-10 9 0 9 5 16 10 16 6 0 10 -4 10 -9z m4482 -96 c9 -55 18 -116 20 -135 l3
-35 -65 0 -65 0 -42 120 c-23 66 -45 128 -49 138 -5 16 2 18 88 15 l93 -3 17
-100z m-3816 81 c3 -8 12 -12 19 -10 15 6 21 -27 29 -169 l5 -88 -249 3 c-217
3 -249 5 -245 18 2 8 14 55 25 103 12 48 23 93 26 100 3 8 33 12 92 12 48 0
101 3 118 7 27 6 31 4 41 -23 15 -40 59 -41 74 -2 12 31 38 63 51 63 5 0 11
-6 14 -14z m5182 -58 c2 -39 -1 -68 -7 -68 -8 0 -51 111 -51 133 0 4 12 7 28
5 26 -3 27 -5 30 -70z m-1681 50 c11 -15 83 -219 83 -236 0 -9 -39 -12 -141
-12 l-142 0 7 108 c4 59 9 109 11 110 2 2 22 6 44 9 45 6 71 -8 71 -38 0 -11
7 -19 15 -19 10 0 15 10 15 29 0 53 17 75 37 49z m-4124 -75 c4 -38 7 -94 7
-125 0 -55 -2 -58 -32 -74 -53 -26 -78 -55 -90 -101 -7 -31 -16 -43 -28 -43
-46 0 -50 8 -51 104 -1 134 -2 135 -87 175 -67 33 -89 56 -59 65 61 19 179 41
183 34 9 -14 48 -9 89 12 22 11 44 20 51 20 6 0 14 -27 17 -67z m5920 27 c11
-14 29 -20 56 -20 51 0 58 -12 35 -61 -14 -30 -28 -42 -54 -49 -69 -20 -70
-19 -70 70 0 44 3 80 8 80 4 0 15 -9 25 -20z m-270 -497 c2 -5 -1 -57 -7 -118
l-11 -110 -485 -3 c-267 -1 -500 0 -519 3 l-33 6 7 102 c4 56 9 104 12 107 4
4 261 10 865 18 92 1 169 -1 171 -5z m-4755 -13 c262 0 303 -2 308 -15 4 -9 3
-59 -1 -112 l-7 -96 -566 7 c-368 5 -571 11 -579 18 -9 7 -13 42 -13 111 l0
100 278 -6 c152 -4 413 -7 580 -7z m1867 -110 l0 -105 -695 4 c-382 2 -697 5
-699 7 -5 5 41 178 52 192 8 9 150 12 676 10 l666 -3 0 -105z m1568 83 c8 -16
27 -63 42 -106 24 -66 26 -80 14 -88 -16 -11 -1260 -1 -1270 10 -4 3 -9 49
-10 101 l-4 95 395 5 c217 3 491 6 607 8 l212 2 14 -27z m187 -37 c0 -30 -4
-57 -9 -60 -8 -5 -51 84 -51 105 0 5 14 9 30 9 30 0 30 -1 30 -54z"/>
</g>
</svg>
