<svg enable-background="new 0 0 100 100" height="512" viewBox="0 0 100 100" width="512" xmlns="http://www.w3.org/2000/svg"><path d="m88.910675 39.0115967h-5.0348892c-1.1610718 0 .7673111.9414062.7673111 2.1022949v13.0009766c0 1.1611328-2.300293 2.1022949-1.1392212 2.1022949h5.4067993c1.1610107 0 2.1022339-.9411621 2.1022339-2.1022949v-13.0009766c0-1.1608887-.9412231-2.1022949-2.1022339-2.1022949z" fill="#344d5b"/><path d="m18.7497005 39.0115967h-7.6603145c-1.1610718 0-2.1022949.9414062-2.1022949 2.1022949v13.0009766c0 1.1611328.9412231 2.1022949 2.1022949 2.1022949h7.8497963c1.1610107 0-3.5822792-.9411621-3.5822792-2.1022949v-13.0009766c0-1.1608887 4.5538082-2.1022949 3.3927974-2.1022949z" fill="#344d5b"/><path d="m85.73526 39.8531494c-.25-5.0600586-4.8099976-9.1101074-10.1900024-9.1101074h-51.0900269c-5.3900146 0-9.9400024 4.0500488-10.1900024 9.1101074l-2 41.8300781c-.2700195 5.7199707 4.2299805 10.4199219 10.0599976 10.4199219h55.3500366c5.8299561 0 10.3299561-4.6999512 10.0599976-10.4199219z" fill="#feda6f"/><path d="m24.4552307 30.743042c-5.3900146 0-9.9400024 4.0500488-10.1900024 9.1101074l-2 41.8300781c-.2700195 5.7199707 4.2299805 10.4199219 10.0599976 10.4199219h6.0200195c9.0800171-4.4499512 18.0800171-11.5 25.7600098-20.7800293 10.7600098-12.9699707 16.75-27.6699219 17.6099854-40.5800781z" fill="#fed35b"/><path d="m71.1507874 38.272583h-42.3015748c-1.6221313 0-2.9371338 1.3149414-2.9371338 2.9370117s1.3150024 2.9370117 2.9371338 2.9370117h42.3015747c1.6221313 0 2.9370728-1.3149414 2.9370728-2.9370117s-1.3149414-2.9370117-2.9370727-2.9370117z" fill="#344d5b"/><path d="m68.6180725 7.8968506h-37.236206c-1.3452759 0-2.4359131 1.0905762-2.4359131 2.435791v30.8769531h42.1080322v-30.8769531c0-1.3452148-1.0906372-2.435791-2.4359131-2.435791z" fill="#ededed"/><g fill="#dbd8dd"><path d="m34.41206 17.097475h31.175818v2.215979h-31.175818z"/><path d="m34.41206 23.445231h31.175818v2.215979h-31.175818z"/><path d="m34.41206 29.792986h31.175818v2.215979h-31.175818z"/></g><path d="m81.6277161 61.1016846c-.057312-1.1987305-1.0459595-2.1411133-2.2460938-2.1411133h-58.7635498c-1.2001343 0-2.1887817.9423828-2.2460938 2.1411133l-1.0266724 21.4584961c-.0542603 1.128418.331543 2.1865234 1.0861206 2.9770508.7857056.8239746 1.8868408 1.2780762 3.0995483 1.2780762h56.9377441c1.2136841 0 2.3148804-.4541016 3.1005859-1.2780762.75354-.7905273 1.1393433-1.8476562 1.085083-2.9760742z" fill="#d6b24e"/><g fill="#ededed"><path d="m24.8944054 59.9034424c-1.4672451 0-2.6566315 1.1893196-2.6566315 2.6568375 0 1.4669724 1.1893864 2.6565628 2.6566315 2.6565628s2.6567001-1.1895905 2.6567001-2.6565628c0-1.4675179-1.189455-2.6568375-2.6567001-2.6568375z"/><path d="m32.067379 59.9034424c-1.4672451 0-2.6566315 1.1893196-2.6566315 2.6568375 0 1.4669724 1.1893864 2.6565628 2.6566315 2.6565628 1.467247 0 2.6567001-1.1895905 2.6567001-2.6565628 0-1.4675179-1.1894531-2.6568375-2.6567001-2.6568375z"/><path d="m39.2403526 59.9034424c-1.467247 0-2.6566315 1.1893196-2.6566315 2.6568375 0 1.4669724 1.1893845 2.6565628 2.6566315 2.6565628s2.6567001-1.1895905 2.6567001-2.6565628c.0000001-1.4675179-1.1894531-2.6568375-2.6567001-2.6568375z"/><path d="m46.4133263 59.9034424c-1.467247 0-2.6566315 1.1893196-2.6566315 2.6568375 0 1.4669724 1.1893845 2.6565628 2.6566315 2.6565628s2.6567001-1.1895905 2.6567001-2.6565628c0-1.4675179-1.1894531-2.6568375-2.6567001-2.6568375z"/><path d="m53.5862999 59.9034424c-1.467247 0-2.6566315 1.1893196-2.6566315 2.6568375 0 1.4669724 1.1893845 2.6565628 2.6566315 2.6565628s2.6567001-1.1895905 2.6567001-2.6565629c0-1.4675178-1.1894531-2.6568374-2.6567001-2.6568374z"/><path d="m60.7592735 59.9034424c-1.467247 0-2.6566315 1.1893196-2.6566315 2.6568375 0 1.4669724 1.1893845 2.6565628 2.6566315 2.6565628s2.6567001-1.1895905 2.6567001-2.6565628c.0000001-1.4675179-1.1894531-2.6568375-2.6567001-2.6568375z"/><path d="m67.932251 59.9034424c-1.467247 0-2.6566391 1.1893196-2.6566391 2.6568375 0 1.4669724 1.1893921 2.6565628 2.6566391 2.6565628 1.4672394 0 2.6567001-1.1895905 2.6567001-2.6565628 0-1.4675179-1.1894607-2.6568375-2.6567001-2.6568375z"/><path d="m75.1052246 59.9034424c-1.467247 0-2.6566391 1.1893196-2.6566391 2.6568375 0 1.4669724 1.1893921 2.6565628 2.6566391 2.6565628 1.4672394 0 2.6567001-1.1895905 2.6567001-2.6565628 0-1.4675179-1.1894607-2.6568375-2.6567001-2.6568375z"/><path d="m24.8944054 73.3322678c-1.4672451 0-2.6566315 1.1893234-2.6566315 2.6568375 0 1.4669724 1.1893864 2.6565628 2.6566315 2.6565628s2.6567001-1.1895905 2.6567001-2.6565628c0-1.4675141-1.189455-2.6568375-2.6567001-2.6568375z"/><path d="m32.067379 73.3322678c-1.4672451 0-2.6566315 1.1893234-2.6566315 2.6568375 0 1.4669724 1.1893864 2.6565628 2.6566315 2.6565628 1.467247 0 2.6567001-1.1895905 2.6567001-2.6565628 0-1.4675141-1.1894531-2.6568375-2.6567001-2.6568375z"/><path d="m39.2403526 73.3322678c-1.467247 0-2.6566315 1.1893234-2.6566315 2.6568375 0 1.4669724 1.1893845 2.6565628 2.6566315 2.6565628s2.6567001-1.1895905 2.6567001-2.6565628c.0000001-1.4675141-1.1894531-2.6568375-2.6567001-2.6568375z"/><path d="m46.4133263 73.3322678c-1.467247 0-2.6566315 1.1893234-2.6566315 2.6568375 0 1.4669724 1.1893845 2.6565628 2.6566315 2.6565628s2.6567001-1.1895905 2.6567001-2.6565628c0-1.4675141-1.1894531-2.6568375-2.6567001-2.6568375z"/><path d="m53.5862999 73.3322678c-1.467247 0-2.6566315 1.1893234-2.6566315 2.6568375 0 1.4669724 1.1893845 2.6565628 2.6566315 2.6565628s2.6567001-1.1895905 2.6567001-2.6565629c0-1.467514-1.1894531-2.6568374-2.6567001-2.6568374z"/><path d="m60.7592735 73.3322678c-1.467247 0-2.6566315 1.1893234-2.6566315 2.6568375 0 1.4669724 1.1893845 2.6565628 2.6566315 2.6565628s2.6567001-1.1895905 2.6567001-2.6565628c.0000001-1.4675141-1.1894531-2.6568375-2.6567001-2.6568375z"/><path d="m67.932251 73.3322678c-1.467247 0-2.6566391 1.1893234-2.6566391 2.6568375 0 1.4669724 1.1893921 2.6565628 2.6566391 2.6565628 1.4672394 0 2.6567001-1.1895905 2.6567001-2.6565628 0-1.4675141-1.1894607-2.6568375-2.6567001-2.6568375z"/><path d="m75.1052246 73.3322678c-1.467247 0-2.6566391 1.1893234-2.6566391 2.6568375 0 1.4669724 1.1893921 2.6565628 2.6566391 2.6565628 1.4672394 0 2.6567001-1.1895905 2.6567001-2.6565628 0-1.4675141-1.1894607-2.6568375-2.6567001-2.6568375z"/><path d="m28.4808922 66.6178589c-1.4672451 0-2.6566315 1.1893158-2.6566315 2.6568375 0 1.4669724 1.1893864 2.6565628 2.6566315 2.6565628s2.6567001-1.1895905 2.6567001-2.6565628c0-1.4675217-1.189455-2.6568375-2.6567001-2.6568375z"/><path d="m35.6538658 66.6178589c-1.467247 0-2.6566315 1.1893158-2.6566315 2.6568375 0 1.4669724 1.1893845 2.6565628 2.6566315 2.6565628s2.6567001-1.1895905 2.6567001-2.6565628c0-1.4675217-1.1894531-2.6568375-2.6567001-2.6568375z"/><path d="m42.8268394 66.6178589c-1.467247 0-2.6566315 1.1893158-2.6566315 2.6568375 0 1.4669724 1.1893845 2.6565628 2.6566315 2.6565628s2.6567001-1.1895905 2.6567001-2.6565628c.0000001-1.4675217-1.189453-2.6568375-2.6567001-2.6568375z"/><path d="m49.9998131 66.6178589c-1.467247 0-2.6566315 1.1893158-2.6566315 2.6568375 0 1.4669724 1.1893845 2.6565628 2.6566315 2.6565628s2.6567001-1.1895905 2.6567001-2.6565628c0-1.4675217-1.1894531-2.6568375-2.6567001-2.6568375z"/><path d="m57.1727867 66.6178589c-1.467247 0-2.6566315 1.1893158-2.6566315 2.6568375 0 1.4669724 1.1893845 2.6565628 2.6566315 2.6565628s2.6567001-1.1895905 2.6567001-2.6565628c0-1.4675217-1.1894531-2.6568375-2.6567001-2.6568375z"/><path d="m64.3457642 66.6178589c-1.4672508 0-2.6566353 1.1893158-2.6566353 2.6568375 0 1.4669724 1.1893845 2.6565628 2.6566353 2.6565628 1.4672394 0 2.6567001-1.1895905 2.6567001-2.6565628 0-1.4675217-1.1894608-2.6568375-2.6567001-2.6568375z"/><path d="m71.5187378 66.6178589c-1.467247 0-2.6566391 1.1893158-2.6566391 2.6568375 0 1.4669724 1.1893921 2.6565628 2.6566391 2.6565628 1.4672394 0 2.6567001-1.1895905 2.6567001-2.6565628 0-1.4675217-1.1894607-2.6568375-2.6567001-2.6568375z"/><path d="m61.7614441 80.5408936h-23.5232544c-1.4272461 0-2.5842896 1.1572266-2.5842896 2.5844727s1.1570435 2.5842285 2.5842896 2.5842285h23.5232544c1.4273071 0 2.5843506-1.1569824 2.5843506-2.5842285s-1.1570435-2.5844727-2.5843506-2.5844727z"/></g></svg>